<svg width="65" height="65" viewBox="0 0 65 65" fill="none" xmlns="http://www.w3.org/2000/svg">
<circle cx="32.5" cy="32.5" r="31" stroke="white" stroke-width="3"/>
<path d="M11 37.7797L18.5454 33.9796C18.8729 33.8146 19.2645 33.8422 19.5657 34.0514L24.0996 37.2009C24.5578 37.5192 25.1878 37.401 25.4995 36.9384L28.1794 32.9603C28.4999 32.4846 29.1539 32.3754 29.6115 32.7211L33.1754 35.4134C33.7579 35.8534 34.6002 35.5413 34.7554 34.828L37.9649 20.0694C38.1988 18.9937 39.7455 19.0304 39.9282 20.116L42.6194 36.1098C42.7777 37.0505 44.0378 37.2565 44.4875 36.4153L45.4357 34.6415C45.7059 34.1362 46.3445 33.9607 46.8349 34.2571L47.9519 34.9322L53 37.7797" stroke="white" stroke-width="3" stroke-linecap="round"/>
<path d="M34 0L45 4V61L34 65V0Z" fill="#F5F5F5" fill-opacity="0.54"/>
</svg>
