<svg xmlns="http://www.w3.org/2000/svg" viewBox="0 0 784.85 240"><defs><style>.cls-1{fill:#fff;}.cls-2{fill:#231f20;}</style></defs><g id="Capa_2" data-name="Capa 2"><g id="Layer_1" data-name="Layer 1"><rect class="cls-1" width="784.85" height="240"/><rect class="cls-2" x="637.02" y="80" width="10" height="80"/><polygon class="cls-2" points="720.85 80 720.85 160 730.85 160 730.85 120 730.85 80 720.85 80"/><polygon class="cls-2" points="784.85 80 770.85 80 730.85 120 770.85 160 784.85 160 744.85 120 784.85 80"/><path class="cls-2" d="M316.69,90h41.5V80h-41.5a22.5,22.5,0,0,0,0,45h19a12.5,12.5,0,0,1,0,25h-41.5v10h41.5a22.5,22.5,0,0,0,0-45h-19a12.5,12.5,0,0,1,0-25Z"/><polygon class="cls-2" points="539.52 80 495.52 160 506.85 160 539.52 100.62 572.19 160 583.52 160 539.52 80"/><path class="cls-2" d="M449.53,80H408v80h10V125h31.5a22.5,22.5,0,0,0,0-45Zm0,35H418V90h31.5a12.5,12.5,0,0,1,0,25Z"/><polygon class="cls-2" points="110 137.5 110 240 240 110 130 110 110 110 48.28 110 110 48.28 110 102.5 130 102.5 130 0 0 130 110 130 130 130 191.72 130 130 191.72 130 137.5 110 137.5"/></g></g></svg>