<svg xmlns="http://www.w3.org/2000/svg" viewBox="0 0 525.18 170.33"><defs><style>.cls-1,.cls-3{fill:#1d1d1b;stroke:#1d1d1b;stroke-miterlimit:10;}.cls-1{stroke-width:0.25px;}.cls-2{fill:#01838f;opacity:0.85;}</style></defs><g id="Capa_2" data-name="Capa 2"><g id="Capa_1-2" data-name="Capa 1"><path class="cls-1" d="M170.21,85.16h0a8.46,8.46,0,0,1-2.49,6L91.18,167.72a8.45,8.45,0,0,1-6,2.49h0a8.5,8.5,0,0,1-8.5-8.51V99.34h17v41.83l47.5-47.5H8.64a8.5,8.5,0,0,1-8.52-8.5h0a8.51,8.51,0,0,1,2.49-6L79.16,2.61a8.49,8.49,0,0,1,6-2.49h0a8.5,8.5,0,0,1,8.5,8.5V71h-17V29.16l-47.5,47.5H161.71a8.5,8.5,0,0,1,8.5,8.5Z"/><rect class="cls-2" x="429.68" y="59.65" width="6.38" height="51.02"/><polygon class="cls-3" points="483.15 59.65 483.15 110.68 489.53 110.68 489.53 85.17 489.53 59.65 483.15 59.65"/><polygon class="cls-3" points="523.97 59.65 515.04 59.65 489.53 85.17 515.04 110.68 523.97 110.68 498.46 85.17 523.97 59.65"/><path class="cls-3" d="M225.37,66h26.47V59.65H225.37a14.35,14.35,0,1,0,0,28.7h12.12a8,8,0,0,1,0,16H211v6.38h26.47a14.35,14.35,0,0,0,0-28.7H225.37a8,8,0,0,1,0-16Z"/><polygon class="cls-2" points="367.5 59.65 339.43 110.68 346.66 110.68 367.5 72.81 388.33 110.68 395.56 110.68 367.5 59.65"/><path class="cls-3" d="M310.1,59.65H283.63v51H290V88.35H310.1a14.35,14.35,0,0,0,0-28.7Zm0,22.33H290V66H310.1a8,8,0,0,1,0,16Z"/></g></g></svg>