<svg xmlns="http://www.w3.org/2000/svg" viewBox="0 0 5670.5 1866.61"><defs><style>.cls-1{fill:#01838f;stroke:#02838f;}.cls-1,.cls-2{stroke-miterlimit:10;}.cls-2{stroke:#000;}</style></defs><g id="Capa_2" data-name="Capa 2"><g id="Capa_1-2" data-name="Capa 1"><path d="M1866.61,933.2v.11a92.94,92.94,0,0,1-27.32,66l-839.91,840a93.12,93.12,0,0,1-66,27.32h-.11A93.29,93.29,0,0,1,840,1773.22v-684.4H1026.7V1547.9L1548,1026.59H93.4A93.29,93.29,0,0,1,0,933.31v-.11a93.07,93.07,0,0,1,27.33-66l840-839.91A92.89,92.89,0,0,1,933.31,0h.11a93.29,93.29,0,0,1,93.28,93.29V777.68H840V318.6L318.71,839.91H1773.33a93.29,93.29,0,0,1,93.28,93.29Z"/><rect class="cls-1" x="4685.44" y="653.32" width="70" height="559.98"/><polygon class="cls-2" points="5221.31 653.32 5221.31 1213.3 5291.31 1213.3 5291.31 933.31 5291.31 653.32 5221.31 653.32"/><polygon class="cls-2" points="5669.29 653.32 5571.3 653.32 5291.31 933.31 5571.3 1213.3 5669.29 1213.3 5389.3 933.31 5669.29 653.32"/><path class="cls-2" d="M2479.35,723.31h290.49v-70H2479.35a157.5,157.5,0,1,0,0,315h133a87.5,87.5,0,1,1,0,175H2321.86v70h290.49a157.5,157.5,0,0,0,0-315h-133a87.5,87.5,0,0,1,0-175Z"/><polygon class="cls-1" points="3995.57 653.32 3687.58 1213.3 3766.91 1213.3 3995.57 797.66 4224.23 1213.3 4303.56 1213.3 3995.57 653.32"/><path class="cls-2" d="M3337.21,653.32H3046.72v560h70v-245h220.49a157.5,157.5,0,0,0,0-315Zm0,245H3116.72v-175h220.49a87.5,87.5,0,0,1,0,175Z"/></g></g></svg>