<svg xmlns="http://www.w3.org/2000/svg" viewBox="0 0 1866.61 1866.61"><g id="Capa_2" data-name="Capa 2"><g id="Capa_1-2" data-name="Capa 1"><path d="M1866.61,933.2v.11a92.94,92.94,0,0,1-27.32,66l-839.91,840a93.12,93.12,0,0,1-66,27.32h-.11A93.29,93.29,0,0,1,840,1773.22v-684.4H1026.7V1547.9L1548,1026.59H93.4A93.29,93.29,0,0,1,0,933.31v-.11a93.07,93.07,0,0,1,27.33-66l840-839.91A92.89,92.89,0,0,1,933.31,0h.11a93.29,93.29,0,0,1,93.28,93.29V777.68H840V318.6L318.71,839.91H1773.33a93.29,93.29,0,0,1,93.28,93.29Z"/></g></g></svg>